<svg xmlns="http://www.w3.org/2000/svg" viewBox="0 0 512 512" role="img" aria-labelledby="title desc">
  <title id="title">Business Seat Quote</title>
  <desc id="desc">A white geometric B on a green rounded square with a gold yuan badge.</desc>
  <defs>
    <linearGradient id="background" x1="72" y1="48" x2="440" y2="472" gradientUnits="userSpaceOnUse">
      <stop offset="0" stop-color="#14956C"/>
      <stop offset="0.56" stop-color="#0B7556"/>
      <stop offset="1" stop-color="#07503C"/>
    </linearGradient>
    <linearGradient id="coin" x1="340" y1="326" x2="436" y2="454" gradientUnits="userSpaceOnUse">
      <stop offset="0" stop-color="#FFE394"/>
      <stop offset="1" stop-color="#F2B83F"/>
    </linearGradient>
  </defs>

  <rect x="20" y="20" width="472" height="472" rx="122" fill="url(#background)"/>
  <path d="M52 150C85 83 144 52 220 46" fill="none" stroke="#55C39E" stroke-width="16" stroke-linecap="round" opacity=".34"/>

  <path
    fill="#FFFFFF"
    d="M138 100h132c73 0 119 37 119 96 0 38-20 67-58 82 48 12 75 45 75 92 0 73-55 116-140 116H138V100Zm75 61v91h49c35 0 54-16 54-46 0-30-20-45-59-45h-44Zm0 148v116h55c42 0 64-20 64-58 0-39-23-58-68-58h-51Z"
  />

  <circle cx="390" cy="390" r="76" fill="url(#coin)" stroke="#07503C" stroke-width="14"/>
  <path d="m360 346 30 38 30-38M390 382v57M360 389h60M365 410h50" fill="none" stroke="#07503C" stroke-width="14" stroke-linecap="round" stroke-linejoin="round"/>
</svg>
